<?xml version="1.0" encoding="utf-8"?>
<!-- Svg Vector Icons : http://www.onlinewebfonts.com/icon -->
<!DOCTYPE svg PUBLIC "-//W3C//DTD SVG 1.1//EN" "http://www.w3.org/Graphics/SVG/1.1/DTD/svg11.dtd">
<svg version="1.1" xmlns="http://www.w3.org/2000/svg" xmlns:xlink="http://www.w3.org/1999/xlink" x="0px" y="0px" viewBox="0 0 256 256" enable-background="new 0 0 256 256" xml:space="preserve">
<metadata> Svg Vector Icons : http://www.onlinewebfonts.com/icon </metadata>
<g><g><path fill="#000000" d="M23.1,10l19.7,213l85.2,23l85.2-23l19.7-213H23.1z M190.7,79l-62.7,26.8l-0.1,0.1h0.1h60.5l-6.9,79.8L128,201.3l-0.1,0v0l-53.8-15.9l-3.5-40.2h0.1h26.5h0.1l1.7,20.8l28.6,7.2l0.2-0.1v0l29.6-8.3l2-33.5l-31.6-0.1l-59-0.2l-2-25.1l61-25.4l3.6-1.5h-3.6H64.6l-3.2-25.7h66.5h65.3L190.7,79z"/></g></g>
</svg>